Coordinates
version=1
nRows=8
nColumns=36
inDegrees=yes

Units are S.I. units (second, meters, Newtons, ...)
If the header above contains a line with 'inDegrees', this indicates whether rotational values are in degrees (yes) or radians (no).

endheader
time	pelvis_tilt	pelvis_list	pelvis_rotation	pelvis_tx	pelvis_ty	pelvis_tz	hip_flexion_r	hip_adduction_r	hip_rotation_r	knee_angle_r	knee_angle_r_beta	ankle_angle_r	subtalar_angle_r	mtp_angle_r	hip_flexion_l	hip_adduction_l	hip_rotation_l	knee_angle_l	knee_angle_l_beta	ankle_angle_l	subtalar_angle_l	mtp_angle_l	lumbar_extension	lumbar_bending	lumbar_rotation	arm_flex_r	arm_add_r	arm_rot_r	elbow_flex_r	pro_sup_r	arm_flex_l	arm_add_l	arm_rot_l	elbow_flex_l	pro_sup_l
      2.53333330	     -7.33765568	      2.66206751	     -3.43849557	      1.30440245	      0.86123481	     -0.03822621	     30.90105590	      5.96247426	      3.84233658	     46.21384984	      0.80658384	     35.28579342	     -6.15107079	     -7.49999987	     66.52008771	     -2.72423608	      0.76444264	     47.95187092	      0.83691803	     23.61755198	      1.70909376	     -7.49999987	    -20.30921151	      3.62502672	     -1.40291167	     35.08103130	     -3.08548136	     69.11125939	    120.31429511	     99.29972277	     40.95872515	     -9.27724533	     64.49503244	    132.16822216	    107.14847347
      2.55000000	     -6.66308629	      3.21197889	     -3.26903565	      1.30459303	      0.86988902	     -0.03773360	     28.53375985	      5.07573017	      3.83897510	     43.59907831	      0.76094747	     33.85520209	     -6.12346303	     -7.49999987	     63.99627099	     -2.16902262	     -0.27088561	     47.27796058	      0.82515608	     23.73141984	      1.12638684	     -7.49999987	    -20.12109682	      2.74486911	     -1.70622940	     34.54132522	     -3.09491639	     68.11364337	    120.28657069	     99.80610898	     40.81190813	     -9.40703993	     64.27050274	    131.81160932	    107.26932145
      2.56666670	     -6.20821286	      3.59253391	     -2.69581613	      1.30457245	      0.87613876	     -0.03789707	     27.00832059	      4.32321447	      3.54392398	     41.55842891	      0.72533142	     32.17950553	     -6.92460719	     -7.49999987	     61.87415243	     -1.62591924	     -1.25461583	     47.13609016	      0.82267997	     23.53115531	      0.17041566	     -7.49999987	    -19.85443709	      2.08398797	     -2.45321492	     34.02244516	     -2.99071889	     67.49091806	    120.63696954	     99.63395591	     40.85928282	     -9.52878864	     64.26446000	    131.79260363	    106.78395138
      2.58333330	     -5.49566762	      4.28784232	     -2.24322926	      1.30543489	      0.88623959	     -0.03832429	     25.03300397	      3.22241376	      3.28803172	     39.13114933	      0.68296740	     30.61267119	     -7.23067005	     -7.49999987	     59.16425847	     -0.89581092	     -2.36628216	     46.53391278	      0.81216999	     22.52607191	     -1.64430126	     -7.49999987	    -20.01368416	      1.20348205	     -2.88272603	     33.88827500	     -3.02704657	     67.10360799	    120.29374128	     99.59274827	     40.92313859	     -9.39435504	     64.26031070	    131.41550509	    106.48891480
      2.60000000	     -4.41688219	      5.02960520	     -2.12952208	      1.31561685	      0.89169019	     -0.03889930	     22.43439977	      2.06975632	      3.07119850	     36.76104827	      0.64160133	     29.63855767	     -6.59210921	     -7.49999987	     56.02083697	     -0.15113323	     -3.37596026	     45.95270255	      0.80202596	     22.32061128	     -2.90953974	     -7.49999987	    -20.12570372	      0.22783413	     -3.29162124	     32.86607812	     -3.11419030	     66.87156400	    120.36212729	     99.87340956	     40.44746121	     -8.99364656	     64.09171962	    131.49624834	    106.53501818
      2.61666670	     -3.82739361	      5.72013745	     -1.84831765	      1.31602424	      0.89666446	     -0.03925071	     20.74721696	      1.02907272	      2.79542548	     35.05573058	      0.61183792	     28.27110213	     -6.45257298	     -7.49999987	     53.56065427	      0.65863444	     -3.98657526	     45.32934783	      0.79114637	     21.97854390	     -4.25832680	     -7.49999987	    -19.81877333	     -0.64243681	     -3.55969510	     32.05944541	     -3.15195941	     67.20581938	    120.58158231	    100.13286238	     40.07621802	     -8.85320686	     63.87743707	    131.25082845	    106.50171086
      2.63333330	     -2.94251631	      6.49019047	     -1.72064865	      1.32588470	      0.90167051	     -0.03980759	     18.25651974	     -0.07881172	      2.51415975	     32.93485694	      0.57482169	     27.18233040	     -5.78192434	     -7.49999987	     50.55269037	      1.50168266	     -4.70255095	     44.27842992	      0.77280439	     21.63411935	     -5.49132940	     -7.49999987	    -19.67903690	     -1.71119284	     -3.96508560	     31.29444482	     -3.09210698	     66.15857641	    120.98530934	     99.69957584	     39.49621776	     -8.88771854	     63.85992613	    131.35557955	    105.77703681
      2.65000000	     -2.92543820	      6.97016011	     -1.69371751	      1.32640264	      0.90157665	     -0.03954571	     17.10920449	     -0.72241631	      2.35952543	     31.25303914	      0.54546843	     26.16316156	     -5.18003359	     -7.49999987	     49.15801733	      2.11557834	     -5.06063114	     43.72309968	      0.76311205	     22.16242093	     -5.71566712	     -7.49999987	    -18.66646879	     -2.52138487	     -4.09497226	     30.79634312	     -2.77175038	     65.82642616	    121.66781834	     99.96164733	     39.02815346	     -8.57396454	     63.46170362	    131.64134098	    105.82156200
